<?xml version="1.0" standalone="no"?>
<!DOCTYPE svg PUBLIC "-//W3C//DTD SVG 20010904//EN"
 "http://www.w3.org/TR/2001/REC-SVG-20010904/DTD/svg10.dtd">
<svg version="1.0" xmlns="http://www.w3.org/2000/svg"
 width="1536.000000pt" height="1024.000000pt" viewBox="0 0 1536.000000 1024.000000"
 preserveAspectRatio="xMidYMid meet">

<g transform="translate(0.000000,1024.000000) scale(0.100000,-0.100000)"
fill="#000000" stroke="none">
<path d="M5615 7856 c-16 -7 -50 -30 -75 -51 -45 -37 -45 -38 -115 -31 -38 3
-95 12 -125 21 -180 50 -163 48 -227 24 -32 -12 -94 -32 -138 -44 -44 -13
-168 -49 -275 -80 -107 -31 -226 -66 -265 -76 -38 -11 -74 -24 -78 -28 -4 -5
-27 -4 -50 0 -23 4 -69 8 -102 9 -107 0 -224 -73 -279 -175 -18 -34 -21 -58
-22 -150 -1 -103 -3 -116 -39 -205 -20 -52 -70 -189 -110 -305 -40 -115 -82
-237 -94 -270 -11 -32 -21 -60 -21 -62 0 -1 -16 -10 -35 -19 -41 -19 -115 -98
-139 -148 -46 -97 -41 -176 18 -320 30 -71 122 -375 140 -462 l7 -31 -59 -6
c-72 -6 -108 -22 -136 -60 -19 -25 -21 -45 -24 -175 -3 -133 -2 -149 15 -163
16 -15 115 -17 948 -23 512 -3 1061 -6 1221 -6 328 0 329 0 341 -72 5 -37 4
-39 -101 -139 -58 -56 -106 -107 -106 -115 0 -17 170 -254 192 -268 13 -8 48
-3 145 21 l128 32 76 -76 c87 -85 84 -63 29 -212 -17 -47 -29 -90 -26 -97 6
-14 233 -168 262 -178 15 -4 36 6 77 36 31 24 76 58 100 76 l44 32 107 -41
106 -41 0 -104 c0 -99 1 -105 23 -113 37 -14 318 -63 332 -58 6 3 27 42 45 87
18 45 39 88 47 96 19 19 265 21 281 2 5 -7 27 -53 48 -102 l38 -88 56 6 c30 4
109 19 175 34 l120 27 5 110 5 109 50 19 c28 10 74 27 103 37 l53 19 95 -76
c111 -89 85 -91 271 25 91 57 123 82 123 97 0 11 -16 64 -35 119 l-36 99 68
71 c37 39 74 72 81 74 7 2 52 -6 100 -17 48 -11 112 -23 143 -27 l56 -6 97
132 c53 73 96 138 96 144 0 6 -52 63 -115 126 -127 127 -140 153 -88 187 26
17 109 18 1503 20 811 2 1489 5 1506 8 17 3 39 14 49 25 20 22 25 67 80 680
20 217 40 440 45 495 30 314 34 409 19 438 -21 40 -167 155 -219 172 -25 8
-148 26 -275 40 -126 14 -320 37 -430 50 -231 29 -392 48 -590 70 -77 9 -194
22 -260 30 -66 8 -196 22 -290 31 -153 15 -174 15 -207 1 -20 -8 -44 -26 -52
-40 -12 -17 -27 -115 -51 -328 -19 -167 -41 -365 -50 -439 -8 -74 -20 -173
-27 -220 -21 -163 -17 -235 21 -333 19 -48 36 -86 38 -83 2 2 -3 31 -11 64 -9
33 -16 83 -16 112 0 48 113 1095 126 1167 3 17 14 39 25 49 21 19 62 18 349
-16 91 -11 305 -35 475 -55 367 -43 738 -87 998 -119 212 -27 227 -33 227 -97
0 -21 -20 -220 -45 -441 -49 -445 -77 -709 -100 -958 -8 -91 -18 -182 -21
-202 l-6 -38 -188 0 -189 0 5 33 c3 17 25 244 50 502 47 491 50 524 87 904 19
193 21 234 10 238 -8 3 -16 3 -18 1 -3 -3 -41 -367 -85 -809 -44 -442 -82
-819 -85 -836 -6 -33 -6 -33 -67 -33 l-60 0 5 33 c9 49 40 418 36 421 -2 2
-137 18 -299 35 -162 17 -333 35 -380 41 -47 5 -112 11 -145 12 l-60 3 -8 -65
c-16 -137 -35 -345 -31 -349 1 -2 81 -12 176 -22 95 -10 234 -26 308 -34 74
-9 186 -21 248 -27 98 -11 112 -14 112 -30 0 -18 -21 -19 -547 -13 -302 2
-897 7 -1324 10 l-775 6 -29 -73 c-150 -388 -426 -663 -784 -782 -472 -157
-1017 -27 -1338 318 -122 131 -217 283 -289 463 l-29 73 -1172 0 c-704 0
-1173 4 -1173 9 0 5 6 12 13 15 6 3 -111 4 -260 3 l-273 -2 0 98 c0 153 -25
142 369 151 214 5 327 4 333 -2 6 -6 9 -39 6 -75 l-4 -65 38 42 c109 119 198
301 198 406 0 66 -10 92 -94 233 -31 52 -46 89 -46 112 0 56 152 795 176 860
4 9 28 27 55 40 54 28 69 49 69 98 0 20 7 41 18 50 30 27 216 143 383 238
l156 89 183 0 184 0 72 -73 c108 -110 109 -110 251 -115 113 -4 124 -3 159 18
35 22 94 101 94 125 0 24 -48 34 -144 28 l-96 -6 -60 64 c-33 35 -63 73 -66
83 -5 15 8 33 57 77 85 77 140 86 209 38 21 -14 39 -16 88 -12 82 8 87 23 33
107 -69 105 -73 107 -203 117 -156 11 -188 10 -223 -5z m300 -45 c22 -4 40
-21 67 -61 45 -66 47 -80 12 -80 -18 0 -41 15 -73 46 l-46 46 -78 -4 -77 -5
-49 -54 -48 -54 -72 -2 c-39 -1 -71 2 -71 6 0 5 -3 21 -6 37 -5 26 -1 31 28
43 18 8 55 31 82 53 l49 38 126 -1 c69 -1 140 -4 156 -8z m-704 -44 c19 -12
43 -39 53 -59 17 -31 18 -41 8 -75 -17 -56 -47 -91 -88 -102 -53 -15 -102 -2
-139 34 -44 45 -51 87 -23 144 39 77 122 103 189 58z m173 -33 l46 -7 0 -93
c0 -51 -4 -95 -9 -98 -5 -3 -36 -3 -70 0 l-61 7 16 26 c18 27 24 99 11 144 -8
30 -7 31 67 21z m-424 -39 c-9 -40 3 -105 27 -141 8 -14 14 -26 12 -28 -2 -2
-56 -27 -119 -56 -63 -28 -127 -58 -142 -65 -31 -15 -31 -15 -47 36 -6 19 -32
66 -56 104 -25 37 -43 70 -41 73 4 3 96 31 326 97 25 7 46 14 46 14 1 1 -2
-15 -6 -34z m-374 -151 c41 -65 74 -132 73 -154 0 -9 -32 -30 -79 -52 -44 -20
-80 -42 -80 -47 0 -5 37 8 83 29 l82 39 9 -25 c4 -14 6 -26 5 -27 -2 -1 -48
-23 -101 -49 l-97 -47 1 67 c1 37 -5 85 -12 107 -16 48 -61 116 -95 143 l-25
20 78 25 c113 37 116 36 158 -29z m-310 -18 c146 -68 193 -220 111 -357 -45
-75 -105 -110 -197 -117 -187 -13 -317 137 -267 309 45 152 212 231 353 165z
m749 -26 c3 -5 -11 -20 -32 -33 -63 -39 -250 -137 -262 -137 -6 0 -11 11 -11
23 0 25 6 28 220 126 74 34 77 34 85 21z m656 -76 l80 -77 100 5 c54 3 99 3
99 0 0 -2 -14 -21 -30 -42 l-30 -38 -126 4 c-84 3 -132 8 -145 17 -10 8 -51
49 -90 91 -85 94 -81 110 29 115 29 1 45 -10 113 -75z m-1748 -330 c32 -42
102 -81 203 -114 57 -19 94 -37 94 -45 0 -8 -15 -67 -34 -132 -18 -65 -41
-152 -51 -195 -18 -74 -19 -76 -42 -65 -27 12 -27 6 -7 87 44 185 73 324 69
328 -5 5 -24 -61 -69 -241 -19 -76 -37 -141 -39 -144 -3 -3 -43 7 -88 22 -45
15 -113 31 -151 35 -38 4 -72 10 -75 13 -5 6 157 477 165 477 2 0 13 -12 25
-26z m358 -152 c14 -6 9 -34 -40 -227 l-57 -220 -25 14 -26 14 18 61 c10 34
36 130 59 214 23 83 45 152 49 151 3 0 13 -3 22 -7z m7935 -206 c19 -14 18
-19 -14 -308 -17 -161 -57 -518 -87 -793 -30 -275 -57 -506 -60 -512 -2 -7
-11 -13 -20 -13 -24 0 -26 -32 50 710 57 565 99 930 105 930 3 0 15 -6 26 -14z
m47 -56 c-7 -28 -13 -25 -13 6 0 14 4 23 9 20 5 -3 7 -15 4 -26z m-16 -122
c-2 -13 -4 -5 -4 17 -1 22 1 32 4 23 2 -10 2 -28 0 -40z m-8357 16 c75 -19
155 -50 155 -60 0 -5 -9 -44 -18 -87 l-18 -78 -31 26 c-66 56 -164 88 -257 84
-63 -2 -61 -6 -30 82 l20 55 62 -4 c34 -2 87 -10 117 -18z m8397 -41 c-3 -10
-5 -2 -5 17 0 19 2 27 5 18 2 -10 2 -26 0 -35z m-8187 -33 c5 0 7 -30 5 -67
-3 -47 -2 -60 4 -43 5 14 9 40 10 58 1 32 7 37 35 26 21 -8 20 -18 -13 -154
l-27 -115 -42 64 -42 63 17 89 c13 68 20 88 31 84 7 -3 18 -5 22 -5z m8137
-37 c-3 -10 -5 -2 -5 17 0 19 2 27 5 18 2 -10 2 -26 0 -35z m40 -5 c-2 -13 -4
-5 -4 17 -1 22 1 32 4 23 2 -10 2 -28 0 -40z m-8401 -81 c89 -45 145 -135 146
-236 2 -131 -75 -242 -196 -281 -93 -30 -241 6 -308 77 -77 81 -96 224 -42
323 32 59 92 113 150 135 62 24 187 15 250 -18z m8391 -34 c-3 -10 -5 -4 -5
12 0 17 2 24 5 18 2 -7 2 -21 0 -30z m-8016 -557 c40 -85 45 -110 30 -134 -8
-14 -81 164 -81 199 0 34 11 20 51 -65z m-665 37 c60 -34 193 -44 262 -20 23
8 44 12 46 8 2 -3 16 -49 31 -101 15 -52 36 -117 46 -143 11 -27 17 -52 14
-56 -2 -5 -43 -11 -89 -15 -47 -3 -107 -10 -133 -15 -26 -5 -63 -12 -80 -15
l-32 -5 -35 112 c-63 205 -84 277 -81 277 1 0 24 -12 51 -27z m375 5 c17 -31
109 -290 109 -305 0 -8 -12 -13 -30 -13 -29 0 -30 2 -66 118 -19 64 -42 136
-49 159 -12 38 -12 44 3 53 9 5 18 10 19 10 1 0 8 -10 14 -22z m6817 -244 c9
-3 12 -13 8 -31 -3 -16 -7 -49 -8 -75 -2 -54 0 -54 -116 -42 l-61 7 5 66 c8
98 4 93 86 86 40 -4 79 -8 86 -11z m206 -22 c8 -4 4 -148 -5 -156 -2 -2 -42 1
-88 7 l-83 11 6 44 c3 25 6 60 6 79 l0 35 78 -7 c42 -4 81 -10 86 -13z m194
-18 l34 -5 -7 -77 c-4 -42 -9 -79 -11 -83 -3 -6 -162 15 -170 23 -3 3 -2 40 2
82 l7 77 56 -6 c31 -3 71 -8 89 -11z m249 -28 c3 -3 2 -41 -2 -86 l-7 -81 -57
6 c-136 15 -134 14 -127 47 3 17 6 53 6 81 l0 50 91 -6 c50 -3 93 -8 96 -11z
m-699 -122 l43 -5 -7 -72 c-4 -40 -8 -75 -10 -79 -4 -6 -31 -4 -131 8 l-42 5
5 47 c3 26 7 61 10 79 5 34 -2 33 132 17z m224 -23 c24 -1 26 -4 23 -33 -3
-18 -7 -55 -10 -81 l-6 -48 -67 6 c-99 10 -101 11 -97 48 3 18 7 52 10 77 l6
46 57 -7 c31 -4 69 -8 84 -8z m212 -28 l28 -5 -7 -72 c-4 -39 -8 -73 -10 -74
-2 -2 -43 -1 -91 3 l-86 8 6 51 c3 28 6 64 6 79 l0 29 63 -7 c34 -3 75 -9 91
-12z m246 -52 c0 -14 -3 -50 -7 -80 l-6 -53 -64 6 c-123 13 -121 12 -116 64 2
26 6 61 9 77 l4 31 90 -10 c88 -9 90 -9 90 -35z"/>
<path d="M5097 7702 c-22 -25 -21 -75 1 -95 41 -37 112 -6 112 48 0 55 -77 87
-113 47z"/>
<path d="M5338 7573 c7 -3 16 -2 19 1 4 3 -2 6 -13 5 -11 0 -14 -3 -6 -6z"/>
<path d="M5388 7563 c7 -3 16 -2 19 1 4 3 -2 6 -13 5 -11 0 -14 -3 -6 -6z"/>
<path d="M4075 7447 c-166 -94 -94 -327 100 -327 74 0 157 71 171 146 27 143
-140 255 -271 181z m156 -42 c35 -18 69 -70 69 -103 0 -38 -31 -93 -64 -113
-71 -44 -161 -13 -191 65 -16 41 -16 50 -4 83 28 72 119 104 190 68z"/>
<path d="M12071 5464 c0 -11 3 -14 6 -6 3 7 2 16 -1 19 -3 4 -6 -2 -5 -13z"/>
<path d="M12065 5387 c-4 -30 -5 -63 -3 -73 3 -11 8 12 13 49 4 37 5 70 2 73
-3 3 -8 -19 -12 -49z"/>
<path d="M12050 5243 c0 -27 -3 -66 -5 -88 -4 -28 -3 -34 3 -20 15 34 25 155
13 155 -6 0 -11 -20 -11 -47z"/>
<path d="M3638 6310 c-48 -26 -75 -62 -94 -127 -29 -99 11 -193 100 -238 162
-81 338 46 305 220 -10 57 -29 86 -83 129 -34 28 -46 31 -114 34 -61 2 -84 -2
-114 -18z m145 -31 c87 -24 138 -105 116 -184 -26 -93 -79 -130 -173 -122 -55
5 -64 9 -98 45 -42 46 -54 92 -39 148 15 54 49 92 96 109 49 17 51 17 98 4z"/>
<path d="M3720 6213 c-92 -35 -73 -173 23 -173 48 0 77 27 84 76 4 33 1 45
-18 67 -25 27 -63 40 -89 30z"/>
<path d="M10187 6889 c-22 -163 -100 -909 -96 -914 6 -5 317 -42 589 -70 198
-20 491 -52 694 -76 92 -11 170 -19 171 -17 2 2 20 165 40 363 20 198 42 410
49 470 8 61 11 113 7 117 -3 3 -224 31 -491 62 -267 31 -574 68 -682 81 -108
14 -214 25 -236 25 -38 0 -39 -1 -45 -41z m248 -18 c806 -92 1152 -135 1161
-143 3 -4 -2 -81 -12 -172 -10 -91 -20 -164 -22 -161 -5 4 14 229 24 291 l4
31 -77 12 c-100 15 -667 81 -694 81 -11 0 -18 -4 -15 -8 2 -4 -21 -5 -52 -2
-31 4 -68 4 -81 1 -14 -4 15 -11 80 -19 472 -54 772 -91 776 -96 3 -3 -3 -86
-13 -183 -10 -98 -20 -169 -22 -157 -2 12 4 88 13 170 8 81 11 152 7 156 -5 5
-85 18 -178 28 -260 30 -765 90 -898 106 -85 10 -122 11 -127 3 -6 -10 -13
-62 -64 -484 -12 -104 -23 -179 -24 -165 0 14 8 111 19 215 24 232 24 257 -2
134 -7 -34 -23 -26 -28 14 -4 30 -12 -16 -29 -160 -13 -112 -26 -201 -29 -198
-3 2 13 166 34 365 37 344 39 360 59 360 11 0 97 -9 190 -19z m140 -120 c88
-11 205 -24 260 -31 55 -6 192 -22 305 -35 113 -13 235 -27 273 -31 37 -4 67
-8 67 -9 0 -5 -60 -565 -66 -617 -6 -52 -9 -57 -28 -53 -11 3 -86 12 -166 20
-80 8 -233 24 -340 34 -348 36 -601 65 -611 71 -9 6 21 302 63 603 l10 78 37
-5 c20 -3 108 -15 196 -25z m-344 -315 c-13 -33 -27 -29 -29 9 -2 33 -1 35 17
24 14 -9 17 -18 12 -33z m1326 -133 c-2 -16 -4 -3 -4 27 0 30 2 43 4 28 2 -16
2 -40 0 -55z m-70 -45 c-2 -13 -4 -3 -4 22 0 25 2 35 4 23 2 -13 2 -33 0 -45z
m60 -40 c-2 -13 -4 -5 -4 17 -1 22 1 32 4 23 2 -10 2 -28 0 -40z m-70 -60 c-2
-13 -4 -3 -4 22 0 25 2 35 4 23 2 -13 2 -33 0 -45z m60 -40 c-3 -7 -5 -2 -5
12 0 14 2 19 5 13 2 -7 2 -19 0 -25z m-1390 -15 c-3 -10 -5 -4 -5 12 0 17 2
24 5 18 2 -7 2 -21 0 -30z m70 -20 c-3 -10 -5 -2 -5 17 0 19 2 27 5 18 2 -10
2 -26 0 -35z m1250 -15 c-2 -13 -4 -5 -4 17 -1 22 1 32 4 23 2 -10 2 -28 0
-40z m60 -55 c-3 -10 -5 -2 -5 17 0 19 2 27 5 18 2 -10 2 -26 0 -35z m-1390 5
c-3 -7 -5 -2 -5 12 0 14 2 19 5 13 2 -7 2 -19 0 -25z m216 25 c-7 -2 -19 -2
-25 0 -7 3 -2 5 12 5 14 0 19 -2 13 -5z m84 -9 c-3 -3 -12 -4 -19 -1 -8 3 -5
6 6 6 11 1 17 -2 13 -5z m1020 -51 c-3 -10 -5 -2 -5 17 0 19 2 27 5 18 2 -10
2 -26 0 -35z m-844 30 c-7 -2 -19 -2 -25 0 -7 3 -2 5 12 5 14 0 19 -2 13 -5z
m-416 -9 c-3 -3 -12 -4 -19 -1 -8 3 -5 6 6 6 11 1 17 -2 13 -5z m611 -11 c-10
-2 -26 -2 -35 0 -10 3 -2 5 17 5 19 0 27 -2 18 -5z m100 -10 c-10 -2 -26 -2
-35 0 -10 3 -2 5 17 5 19 0 27 -2 18 -5z m99 -9 c-3 -3 -12 -4 -19 -1 -8 3 -5
6 6 6 11 1 17 -2 13 -5z m510 -36 c-3 -8 -6 -5 -6 6 -1 11 2 17 5 13 3 -3 4
-12 1 -19z"/>
<path d="M10308 6863 c7 -3 16 -2 19 1 4 3 -2 6 -13 5 -11 0 -14 -3 -6 -6z"/>
<path d="M10408 6853 c7 -3 16 -2 19 1 4 3 -2 6 -13 5 -11 0 -14 -3 -6 -6z"/>
<path d="M10478 6843 c12 -2 32 -2 45 0 12 2 2 4 -23 4 -25 0 -35 -2 -22 -4z"/>
<path d="M10578 6833 c6 -2 18 -2 25 0 6 3 1 5 -13 5 -14 0 -19 -2 -12 -5z"/>
<path d="M10423 6823 c9 -2 25 -2 35 0 9 3 1 5 -18 5 -19 0 -27 -2 -17 -5z"/>
<path d="M10643 6823 c9 -2 25 -2 35 0 9 3 1 5 -18 5 -19 0 -27 -2 -17 -5z"/>
<path d="M10493 6813 c9 -2 25 -2 35 0 9 3 1 5 -18 5 -19 0 -27 -2 -17 -5z"/>
<path d="M10738 6813 c7 -3 16 -2 19 1 4 3 -2 6 -13 5 -11 0 -14 -3 -6 -6z"/>
<path d="M10222 6695 c0 -16 2 -22 5 -12 2 9 2 23 0 30 -3 6 -5 -1 -5 -18z"/>
<path d="M10261 6654 c0 -11 3 -14 6 -6 3 7 2 16 -1 19 -3 4 -6 -2 -5 -13z"/>
<path d="M10212 6620 c0 -19 2 -27 5 -17 2 9 2 25 0 35 -3 9 -5 1 -5 -18z"/>
<path d="M10396 6658 c-22 -30 -20 -71 3 -92 24 -22 102 -19 109 4 4 12 2 13
-9 3 -19 -19 -73 -16 -92 5 -35 38 -8 92 45 92 26 0 51 -27 61 -65 4 -18 5
-18 6 -2 0 11 -8 32 -20 48 -26 37 -80 41 -103 7z"/>
<path d="M10646 6653 c35 -7 56 -37 52 -75 -3 -30 -6 -33 -43 -38 l-40 -5 45
-7 c51 -8 57 -5 64 37 4 24 -1 36 -26 62 -18 18 -41 32 -52 32 -20 -2 -20 -2
0 -6z"/>
<path d="M10588 6623 c7 -3 16 -2 19 1 4 3 -2 6 -13 5 -11 0 -14 -3 -6 -6z"/>
<path d="M10847 6612 c-23 -25 -21 -64 5 -97 19 -24 26 -27 69 -23 33 4 46 2
42 -6 -4 -7 -2 -7 6 0 7 7 17 31 22 55 10 41 8 46 -16 66 -33 29 -104 32 -128
5z m108 -2 c23 -9 26 -15 23 -52 -3 -38 -6 -43 -35 -52 -48 -13 -93 8 -93 45
0 15 4 30 10 34 5 3 7 12 3 20 -4 12 3 15 30 15 20 0 48 -4 62 -10z"/>
<path d="M11273 6613 c-7 -2 -13 -12 -12 -21 0 -12 2 -13 6 -4 4 10 8 9 18 -5
12 -16 13 -15 8 10 -3 15 -6 27 -7 26 0 0 -7 -3 -13 -6z"/>
<path d="M11215 6590 c-3 -5 1 -10 9 -10 9 0 16 5 16 10 0 6 -4 10 -9 10 -6 0
-13 -4 -16 -10z"/>
<path d="M11400 6596 c0 -2 7 -7 16 -10 8 -3 12 -2 9 4 -6 10 -25 14 -25 6z"/>
<path d="M11128 6541 c-37 -28 -37 -29 -18 -46 11 -10 20 -13 20 -7 0 6 -5 14
-11 18 -17 10 32 34 54 28 16 -5 17 -3 8 15 -7 12 -13 21 -14 20 -1 0 -19 -13
-39 -28z"/>
<path d="M11390 6566 c0 -2 9 -6 20 -9 11 -3 20 -1 20 4 0 5 -9 9 -20 9 -11 0
-20 -2 -20 -4z"/>
<path d="M10587 6549 c7 -7 15 -10 18 -7 3 3 -2 9 -12 12 -14 6 -15 5 -6 -5z"/>
<path d="M11055 6550 c3 -5 8 -10 11 -10 2 0 4 5 4 10 0 6 -5 10 -11 10 -5 0
-7 -4 -4 -10z"/>
<path d="M10666 6333 c-3 -32 -9 -88 -12 -125 l-7 -68 49 0 c27 0 111 -7 188
-15 353 -37 460 -45 466 -34 4 6 10 45 13 87 4 42 9 91 13 108 l6 31 -119 12
c-65 7 -209 23 -320 37 -112 13 -218 24 -237 24 -33 0 -33 0 -40 -57z m186 11
l58 -6 -6 -87 c-4 -47 -9 -89 -13 -93 -9 -10 -206 16 -204 27 0 6 4 48 8 94
l7 83 46 -5 c26 -3 73 -9 104 -13z m262 -31 l29 -5 -7 -86 c-3 -47 -8 -88 -10
-90 -5 -4 -188 17 -194 22 -2 2 0 43 4 91 l7 87 71 -7 c39 -3 84 -9 100 -12z
m210 -22 l29 -1 -7 -82 c-4 -44 -9 -85 -12 -90 -5 -8 -80 -4 -146 8 -23 5 -26
9 -23 37 3 18 7 57 10 87 l6 56 57 -7 c31 -4 70 -8 86 -8z"/>
<path d="M11307 6384 c-11 -12 3 -24 28 -24 18 0 23 4 19 15 -6 15 -35 20 -47
9z"/>
<path d="M11837 6659 c-13 -102 -18 -94 86 -106 50 -5 94 -8 97 -6 9 7 12 135
4 143 -5 4 -48 11 -95 15 l-86 7 -6 -53z"/>
<path d="M8320 6569 c-191 -15 -330 -112 -364 -254 -13 -51 -7 -176 9 -226 19
-57 77 -126 143 -168 26 -17 97 -51 158 -76 188 -79 224 -108 224 -178 0 -52
-13 -73 -60 -97 -109 -56 -326 0 -406 105 -48 64 -58 48 -65 -105 -4 -101 -2
-138 7 -149 24 -26 229 -61 359 -61 135 1 183 9 262 47 101 47 158 113 189
219 23 79 14 189 -22 261 -29 60 -106 133 -174 165 -246 115 -291 139 -310
171 -30 49 -26 97 11 133 29 28 33 29 127 29 84 -1 105 -5 156 -28 32 -15 76
-43 97 -62 41 -37 57 -43 63 -22 10 36 25 232 18 239 -18 18 -152 48 -243 56
-52 4 -132 4 -179 1z"/>
<path d="M4701 6527 c-19 -49 -17 -72 6 -75 12 -2 23 -9 25 -15 3 -7 -21 -95
-53 -197 -31 -102 -94 -306 -139 -455 -45 -148 -88 -282 -96 -297 -9 -17 -27
-31 -47 -36 -28 -7 -32 -13 -35 -45 l-3 -37 189 0 190 0 6 31 c7 39 1 49 -29
49 -13 0 -31 7 -39 16 -17 17 -16 26 16 137 l19 67 166 -2 167 -3 22 -89 c12
-49 20 -95 17 -102 -3 -8 -17 -17 -32 -20 -50 -11 -52 -13 -49 -46 l3 -33 228
-3 227 -2 0 33 c0 28 -5 36 -33 49 -40 19 -27 -18 -191 562 -64 224 -113 412
-110 417 3 5 19 12 37 17 25 6 33 14 35 35 2 14 -2 35 -8 47 -10 19 -19 20
-246 20 l-234 0 -9 -23z m247 -482 c29 -115 52 -213 52 -217 0 -5 -54 -8 -121
-8 -93 0 -120 3 -117 13 3 6 31 108 63 225 32 117 61 209 65 205 4 -5 30 -102
58 -218z"/>
<path d="M9146 6533 c-3 -10 -62 -209 -131 -443 -69 -234 -137 -463 -151 -509
-25 -83 -58 -131 -89 -131 -8 0 -15 -6 -16 -12 0 -7 -3 -25 -5 -40 l-5 -28
201 0 200 0 0 39 c0 37 -2 39 -36 45 -19 4 -38 14 -41 22 -3 9 5 55 18 102
l24 87 171 3 171 2 22 -80 c12 -44 24 -87 27 -94 7 -19 -23 -46 -51 -46 -30 0
-36 -10 -29 -49 l7 -31 233 0 234 0 0 34 c0 29 -5 36 -29 44 -16 6 -37 21 -45
34 -20 30 -278 924 -274 947 2 9 17 18 33 21 34 6 42 30 26 73 l-11 27 -224 0
c-205 0 -225 -2 -230 -17z m207 -701 c-35 -2 -92 -2 -127 0 l-63 3 58 220 c33
121 62 227 65 235 4 8 34 -91 68 -220 l61 -235 -62 -3z"/>
<path d="M7402 6493 c3 -43 6 -48 28 -51 51 -8 50 6 50 -478 0 -272 -4 -463
-10 -479 -6 -17 -20 -27 -40 -31 -27 -6 -30 -10 -30 -45 l0 -39 240 0 240 0
-2 40 c-3 36 -6 41 -35 46 -18 3 -37 12 -43 19 -7 8 -9 167 -8 486 l3 474 37
3 c31 3 39 8 44 28 3 13 3 35 0 49 l-6 25 -236 0 -235 0 3 -47z"/>
<path d="M11825 6466 c-2 -6 -5 -36 -8 -68 l-4 -56 41 -6 c23 -3 64 -8 92 -12
l51 -6 6 53 c11 91 12 89 -35 90 -24 0 -65 4 -91 8 -33 6 -50 5 -52 -3z"/>
<path d="M6310 6375 l-85 -23 -3 -85 -3 -85 -39 -7 -40 -7 0 -59 c0 -57 1 -59
28 -60 15 -1 32 -1 39 0 8 1 12 -68 15 -266 3 -302 7 -318 81 -377 33 -26 46
-30 121 -34 99 -5 145 7 181 49 28 34 32 66 11 94 -11 15 -24 18 -65 16 -48
-2 -52 0 -71 31 -18 30 -20 50 -20 260 l0 226 68 -1 67 -2 3 63 3 62 -71 0
-70 0 0 115 0 115 -32 -1 c-18 -1 -71 -11 -118 -24z"/>
<path d="M11806 6248 c-2 -7 -7 -41 -9 -74 l-5 -61 90 -7 c50 -4 92 -6 93 -4
1 2 5 33 7 70 l6 66 -52 7 c-28 3 -68 8 -88 11 -27 4 -39 2 -42 -8z"/>
<path d="M6834 6183 c-60 -20 -119 -75 -151 -141 -28 -56 -28 -59 -28 -247 0
-125 4 -204 13 -232 19 -62 70 -124 132 -158 53 -29 60 -30 180 -30 111 0 130
3 167 23 66 35 110 79 140 140 28 56 28 59 28 252 0 194 0 195 -28 252 -34 70
-94 123 -162 144 -62 18 -233 17 -291 -3z m209 -153 c38 -30 47 -77 47 -243 0
-162 -10 -203 -54 -232 -32 -21 -85 -14 -112 16 -17 19 -19 39 -19 226 l0 205
28 24 c34 29 76 31 110 4z"/>
<path d="M5360 6126 c0 -44 0 -44 40 -51 l40 -7 0 -249 c0 -226 2 -253 20
-303 35 -93 113 -146 215 -146 63 0 112 18 158 56 l32 27 11 -39 11 -39 131
-3 132 -3 0 39 c0 33 -4 39 -30 49 l-30 11 -1 209 c0 114 -2 240 -4 278 -1 39
-3 103 -4 143 l-1 72 -146 0 -145 0 3 -42 c3 -40 5 -43 36 -46 l32 -3 0 -218
c0 -213 0 -218 -22 -238 -40 -36 -62 -43 -102 -32 -63 17 -66 33 -66 324 l0
255 -155 0 -155 0 0 -44z"/>
<path d="M11779 6027 c0 -7 -4 -34 -8 -60 -10 -59 -6 -62 107 -71 92 -7 87
-11 96 71 l5 52 -32 5 c-88 13 -167 15 -168 3z"/>
<path d="M10021 5905 c2 -10 10 -20 18 -23 9 -3 11 0 7 7 -6 8 0 10 18 5 16
-4 26 -2 26 5 0 6 -6 11 -12 11 -7 0 -24 3 -37 7 -18 5 -22 2 -20 -12z"/>
<path d="M10222 5848 c3 -31 6 -33 44 -36 38 -3 42 -1 46 23 6 30 -14 45 -62
45 -29 0 -31 -2 -28 -32z"/>
<path d="M10375 5840 c-9 -28 1 -36 53 -45 l43 -7 -3 34 c-3 31 -5 33 -45 36
-35 3 -42 0 -48 -18z"/>
<path d="M10560 5811 c0 -25 5 -30 36 -36 39 -7 54 3 54 36 0 17 -27 29 -67
29 -19 0 -23 -6 -23 -29z"/>
<path d="M11735 5788 c-3 -23 -7 -68 -8 -98 l-2 -55 108 -9 c59 -5 109 -7 111
-5 2 2 7 45 11 95 l7 92 -49 6 c-26 3 -76 8 -110 12 l-62 6 -6 -44z m138 -3
l47 -6 0 -52 c0 -76 -5 -80 -89 -71 l-71 7 0 37 c0 21 3 51 6 68 5 27 10 30
33 27 14 -2 47 -7 74 -10z"/>
<path d="M10718 5802 c-9 -32 6 -44 48 -40 34 3 39 6 39 28 0 22 -5 25 -41 28
-34 2 -42 0 -46 -16z"/>
<path d="M10875 5790 c-10 -32 13 -51 54 -48 30 3 36 7 39 29 3 22 -2 27 -29
33 -49 9 -57 8 -64 -14z"/>
<path d="M11030 5760 c0 -23 5 -31 24 -36 44 -11 71 -1 74 27 3 28 -15 39 -70
39 -24 0 -28 -4 -28 -30z"/>
<path d="M11187 5748 c-9 -32 -1 -38 49 -38 40 0 44 2 44 24 0 26 -16 36 -60
36 -20 0 -29 -6 -33 -22z"/>
<path d="M11353 5743 c-12 -31 2 -48 44 -51 34 -3 42 0 48 17 3 12 4 25 1 30
-9 15 -88 18 -93 4z"/>
<path d="M11490 5723 c0 -11 7 -20 15 -20 18 0 16 28 -2 35 -8 2 -13 -5 -13
-15z"/>
<path d="M10145 5633 c-23 -206 -32 -349 -24 -358 11 -11 315 -43 330 -35 14
9 46 397 33 409 -7 8 -268 41 -319 41 -8 0 -15 -21 -20 -57z m180 2 c129 -10
125 -8 125 -65 0 -28 -4 -50 -9 -50 -5 0 -6 20 -4 44 l5 43 -103 12 c-57 7
-113 13 -124 14 -18 2 -21 -6 -27 -78 -11 -113 -18 -127 -11 -20 3 50 6 96 6
103 0 10 9 12 31 8 17 -3 67 -8 111 -11z m112 -197 c-2 -13 -4 -3 -4 22 0 25
2 35 4 23 2 -13 2 -33 0 -45z m-270 -70 c-2 -13 -4 -3 -4 22 0 25 2 35 4 23 2
-13 2 -33 0 -45z m260 -25 c-3 -10 -5 -4 -5 12 0 17 2 24 5 18 2 -7 2 -21 0
-30z m-200 -39 c-3 -3 -12 -4 -19 -1 -8 3 -5 6 6 6 11 1 17 -2 13 -5z m86 -11
c-7 -2 -19 -2 -25 0 -7 3 -2 5 12 5 14 0 19 -2 13 -5z"/>
<path d="M11705 5540 c-7 -12 -30 -229 -24 -234 8 -8 234 -25 241 -18 8 8 32
221 26 228 -4 3 -86 15 -195 27 -24 3 -45 1 -48 -3z m184 -46 c23 -5 23 -6 16
-87 -4 -45 -8 -83 -9 -84 -3 -3 -176 14 -180 18 -2 2 1 42 7 89 l10 86 66 -9
c36 -5 77 -11 90 -13z"/>
<path d="M6470 5140 l0 -40 70 0 70 0 0 -160 0 -160 50 0 50 0 0 160 0 159 78
3 77 3 3 38 3 37 -200 0 -201 0 0 -40z"/>
<path d="M6960 4965 l0 -185 190 0 190 0 0 35 0 35 -135 0 -135 0 0 40 0 40
99 0 c81 0 100 3 105 16 16 41 10 44 -99 44 l-105 0 0 45 0 44 123 3 122 3 3
33 3 32 -180 0 -181 0 0 -185z"/>
<path d="M7568 5103 c-11 -27 -43 -95 -70 -153 -28 -58 -56 -120 -64 -137
l-14 -33 53 0 53 0 15 43 16 42 90 3 91 3 18 -46 19 -45 57 0 58 0 -24 53
c-13 28 -36 79 -51 112 -15 33 -43 93 -61 133 l-33 72 -66 0 -66 0 -21 -47z
m120 -102 c12 -30 20 -56 18 -58 -2 -2 -28 -3 -58 -1 l-54 3 29 63 c16 35 33
60 37 55 3 -4 16 -32 28 -62z"/>
<path d="M7980 4965 l0 -185 45 0 45 0 1 88 c0 48 0 106 -1 130 -1 23 2 42 7
42 4 0 31 -42 59 -93 48 -87 53 -92 86 -95 33 -3 38 0 64 45 16 27 40 70 54
96 l25 48 3 -131 3 -130 49 0 50 0 0 185 0 185 -68 0 -69 0 -49 -90 c-26 -49
-51 -90 -54 -90 -3 0 -29 41 -58 90 l-54 90 -69 0 -69 0 0 -185z"/>
<path d="M4469 4805 c-94 -94 -110 -106 -142 -107 -31 -1 -45 6 -91 50 l-55
52 -282 0 -282 0 -34 39 c-27 32 -43 41 -78 47 -135 20 -212 -128 -116 -220
63 -61 171 -39 210 41 l16 33 275 0 276 0 47 -50 47 -50 407 0 408 0 -35 -35
-35 -35 -509 -1 c-420 -1 -510 1 -518 12 -7 10 -8 3 -4 -20 3 -18 6 -39 6 -45
0 -8 140 -10 525 -6 l526 5 69 63 69 62 225 0 226 0 0 30 0 30 -587 0 -587 0
74 75 74 75 553 0 552 0 6 21 c5 14 2 25 -6 30 -8 5 -264 9 -570 9 l-555 0
-105 -105z m-924 10 c32 -31 32 -75 1 -112 -34 -39 -98 -39 -132 0 -51 60 -14
137 66 137 30 0 47 -6 65 -25z"/>
<path d="M9352 4898 c-7 -7 -8 -17 -1 -30 9 -17 40 -18 712 -18 l702 -1 80
-74 80 -74 -735 -1 c-404 0 -741 -4 -748 -9 -8 -5 -12 -17 -10 -27 3 -18 17
-19 244 -22 l240 -2 64 -65 64 -65 636 0 635 0 1 35 c0 18 -4 31 -9 28 -5 -3
-286 -5 -624 -5 l-616 0 -36 36 -36 36 533 0 532 0 55 50 55 50 278 0 277 0
15 -33 c23 -49 76 -80 129 -74 57 6 93 34 111 85 13 37 13 47 0 84 -36 103
-183 119 -237 27 l-17 -29 -288 0 -287 0 -59 -55 -60 -55 -50 42 c-28 24 -84
73 -125 111 l-74 67 -710 0 c-522 0 -712 -3 -721 -12z m2563 -83 c18 -17 25
-35 25 -63 0 -51 -27 -77 -82 -77 -77 0 -116 88 -63 140 33 34 87 34 120 0z"/>
<path d="M3868 4643 c7 -3 16 -2 19 1 4 3 -2 6 -13 5 -11 0 -14 -3 -6 -6z"/>
<path d="M3845 4620 c-17 -7 -15 -8 10 -7 17 1 41 -3 55 -7 17 -6 22 -5 15 2
-15 16 -57 22 -80 12z"/>
<path d="M11380 4613 c-19 -9 -38 -16 -41 -15 -3 0 -7 -23 -8 -52 -1 -37 3
-57 13 -66 9 -7 14 -16 11 -20 -3 -5 0 -12 6 -16 7 -4 10 -3 6 2 -3 5 20 9 51
10 62 1 87 5 99 19 4 4 2 5 -6 0 -10 -6 -11 -2 -5 16 15 49 11 78 -15 102 -35
33 -69 39 -111 20z m98 -19 c28 -18 31 -87 5 -116 -23 -26 -90 -24 -120 4 -40
37 -29 102 21 124 33 14 57 11 94 -12z"/>
<path d="M3794 4585 c-20 -31 -21 -73 -3 -88 8 -7 11 -8 7 -3 -13 17 -9 71 8
94 8 12 13 22 10 22 -3 0 -13 -11 -22 -25z"/>
<path d="M6767 4553 c135 -125 368 -226 583 -253 348 -42 706 53 915 245 l40
37 -55 -32 c-145 -83 -293 -138 -465 -172 -153 -31 -397 -31 -535 1 -193 43
-340 101 -480 188 l-55 34 52 -48z"/>
<path d="M3950 4537 c0 -23 -8 -41 -25 -57 -20 -19 -31 -22 -72 -17 -34 4 -42
2 -29 -5 35 -20 89 -12 113 17 20 23 34 95 18 95 -3 0 -5 -15 -5 -33z"/>
<path d="M5219 4445 l-44 -35 -314 0 -313 0 -30 25 c-42 35 -91 34 -129 -4
-43 -43 -34 -97 20 -126 45 -23 70 -18 107 20 l33 35 330 0 329 0 33 28 33 27
230 5 231 5 0 25 0 25 -236 3 -236 2 -44 -35z"/>
<path d="M9294 4465 c-4 -8 -4 -22 0 -30 4 -13 36 -15 202 -15 l196 0 60 -55
59 -55 178 0 c176 0 178 0 201 25 l23 25 210 0 210 0 40 -36 c34 -32 44 -35
76 -30 40 6 81 48 81 83 0 12 -12 35 -26 52 -34 41 -97 44 -142 6 l-30 -25
-224 0 -225 0 -23 -25 c-23 -24 -27 -25 -169 -25 l-146 0 -67 60 -66 60 -206
0 c-174 0 -208 -2 -212 -15z"/>
<path d="M5308 4285 l-72 -65 -168 0 -168 0 0 -30 0 -30 181 0 181 0 67 65 67
65 370 2 c352 3 369 4 372 22 2 10 -2 22 -10 27 -7 5 -178 9 -380 9 l-367 0
-73 -65z"/>
<path d="M8902 4341 c-8 -5 -12 -17 -10 -27 3 -18 20 -19 336 -24 l333 -5 47
-46 c87 -85 55 -79 443 -79 269 0 348 -3 352 -12 4 -10 6 -10 6 0 1 17 21 15
21 -2 0 -8 9 -24 20 -37 19 -24 19 -24 0 14 -32 64 4 126 74 129 l41 1 -39 4
c-32 4 -44 -1 -67 -23 -16 -15 -29 -36 -29 -46 0 -10 -5 -18 -10 -18 -6 0 -4
15 5 36 12 30 13 34 1 25 -10 -9 -110 -12 -362 -11 l-348 0 -67 65 -67 65
-334 0 c-183 0 -339 -4 -346 -9z"/>
<path d="M4773 4273 c9 -2 25 -2 35 0 9 3 1 5 -18 5 -19 0 -27 -2 -17 -5z"/>
<path d="M4745 4245 c-20 -16 -20 -16 2 -6 50 25 103 7 122 -40 9 -22 10 -23
10 -3 1 12 -6 27 -14 34 -8 7 -13 15 -11 19 9 15 -90 11 -109 -4z"/>
<path d="M10570 4236 c0 -2 8 -10 18 -17 15 -13 16 -12 3 4 -13 16 -21 21 -21
13z"/>
<path d="M4697 4181 c-2 -10 -1 -24 3 -30 4 -7 7 1 8 18 1 35 -3 40 -11 12z"/>
<path d="M10600 4171 c0 -15 -9 -41 -21 -57 l-21 -29 26 28 c16 17 26 40 26
58 0 16 -2 29 -5 29 -3 0 -5 -13 -5 -29z"/>
<path d="M4870 4147 c0 -15 -37 -51 -60 -60 -12 -4 -11 -6 3 -6 22 -1 67 42
67 64 0 8 -2 15 -5 15 -3 0 -5 -6 -5 -13z"/>
<path d="M10488 4083 c7 -3 16 -2 19 1 4 3 -2 6 -13 5 -11 0 -14 -3 -6 -6z"/>
</g>
</svg>
